

Release info:

General
Format                                   : Matroska
Format version                           : Version 2
File size                                : 898 MiB
Duration                                 : 1h 55mn
Overall bit rate                         : 1 091 Kbps

Video
ID                                       : 1
Format                                   : MPEG-4 Visual
Format profile                           : Simple@L3
Format settings, BVOP                    : No
Format settings, QPel                    : No
Format settings, GMC                     : No warppoints
Format settings, Matrix                  : Default (H.263)
Codec ID                                 : V_MS/VFW/FOURCC / XVID
Codec ID/Hint                            : XviD
Duration                                 : 1h 55mn
Bit rate                                 : 942 Kbps
Width                                    : 624 pixels
Height                                   : 336 pixels
Display aspect ratio                     : 1.85:1
Frame rate mode                          : Constant
Frame rate                               : 25.000 fps
Color space                              : YUV
Chroma subsampling                       : 4:2:0
Bit depth                                : 8 bits
Scan type                                : Progressive
Compression mode                         : Lossy
Bits/(Pixel*Frame)                       : 0.180
Stream size                              : 775 MiB (86%)
Language                                 : English
Default                                  : Yes
Forced                                   : No

Audio
ID                                       : 2
Format                                   : MPEG Audio
Format version                           : Version 1
Format profile                           : Layer 3
Mode                                     : Joint stereo
Mode extension                           : MS Stereo
Muxing mode                              : Header stripping
Codec ID                                 : A_MPEG/L3
Codec ID/Hint                            : MP3
Duration                                 : 1h 55mn
Bit rate mode                            : Constant
Bit rate                                 : 128 Kbps
Channel(s)                               : 2 channels
Sampling rate                            : 48.0 KHz
Compression mode                         : Lossy
Stream size                              : 105 MiB (12%)
Writing library                          : LAME3.98
Language                                 : English
Default                                  : Yes
Forced                                   : No

Text
ID                                       : 3
Format                                   : UTF-8
Codec ID                                 : S_TEXT/UTF8
Codec ID/Info                            : UTF-8 Plain Text
Language                                 : English
Default                                  : Yes
Forced                                   : No



Source:
credit to original movie ripper NYDIC (Thanks)

IMDB Info:

An imprisoned vampire, Barnabas Collins, is set free and returns to his ancestral home, where his dysfunctional descendants are in need of his protection.

Director: Tim Burton
Writers: Seth Grahame-Smith (screenplay), John August (story), 
Stars: Johnny Depp, Michelle Pfeiffer and Eva Green

Genres: Comedy | Fantasy
 
http://www.imdb.com/title/tt1077368/

Screen Shot:
 
http://www.shotpix.com/images/86315969227865006630.png 
http://www.shotpix.com/images/97079777753060522595.png 
http://www.shotpix.com/images/42712835854509537085.png 
http://www.shotpix.com/images/14580609118055205026.png 
http://www.shotpix.com/images/79792202473137698132.png 
http://www.shotpix.com/images/81044749232642483007.png